<svg xmlns="http://www.w3.org/2000/svg" fill="white" viewBox="0 0 24 24">
  <path d="M12 2.2c3.2 0 3.6 0 4.8.1 1.2.1 1.9.3 2.4.5.6.3 1 .7 1.3 1.3.2.5.4 1.2.5 2.4.1 1.2.1 1.6.1 4.8s0 3.6-.1 4.8c-.1 1.2-.3 1.9-.5 2.4-.3.6-.7 1-1.3 1.3-.5.2-1.2.4-2.4.5-1.2.1-1.6.1-4.8.1s-3.6 0-4.8-.1c-1.2-.1-1.9-.3-2.4-.5a2.8 2.8 0 0 1-1.3-1.3c-.2-.5-.4-1.2-.5-2.4C2.2 15.6 2.2 15.2 2.2 12s0-3.6.1-4.8c.1-1.2.3-1.9.5-2.4A2.8 2.8 0 0 1 4.1 3.5c.5-.2 1.2-.4 2.4-.5C8.4 2.2 8.8 2.2 12 2.2m0-2.2C8.7 0 8.3 0 7.1.1 5.9.2 4.9.5 4.1.9c-.8.4-1.5 1-2 2-.4.8-.7 1.8-.8 3C1.1 7.7 1.1 8.1 1.1 12s0 4.3.1 5.5c.1 1.2.4 2.2.8 3 .4.8 1 1.5 2 2 .8.4 1.8.7 3 .8 1.2.1 1.6.1 5.1.1s3.9 0 5.1-.1c1.2-.1 2.2-.4 3-.8.8-.4 1.5-1 2-2 .4-.8.7-1.8.8-3 .1-1.2.1-1.6.1-5.5s0-4.3-.1-5.5c-.1-1.2-.4-2.2-.8-3-.4-.8-1-1.5-2-2-.8-.4-1.8-.7-3-.8C15.7 0 15.3 0 12 0z"/>
  <path d="M12 5.8a6.2 6.2 0 1 0 0 12.4 6.2 6.2 0 0 0 0-12.4zm0 10.2a4 4 0 1 1 0-8.1 4 4 0 0 1 0 8.1zM18.4 4.6a1.4 1.4 0 1 0 0 2.7 1.4 1.4 0 0 0 0-2.7z"/>
</svg>